<svg width="413" height="52" viewBox="0 0 413 52" fill="none" xmlns="http://www.w3.org/2000/svg">
<path fill-rule="evenodd" clip-rule="evenodd" d="M42.494 0C31.1615 0 24.0806 5.67303 21.2462 17.0191C25.4961 11.3461 30.4538 9.2191 36.1192 10.6365C39.3516 11.445 41.663 13.7934 44.2193 16.3934C48.3859 20.6272 53.2087 25.527 63.7402 25.527C75.0711 25.527 82.1537 19.8539 84.9864 8.50955C80.7382 14.1826 75.7805 16.3095 70.1151 14.8905C66.881 14.0819 64.5696 11.7335 62.0133 9.13523C57.8466 4.89806 53.0255 0 42.494 0ZM21.2462 25.527C9.91533 25.527 2.83271 31.2 0 42.5461C4.2499 36.873 9.20757 34.7461 14.8713 36.1635C18.1054 36.972 20.4169 39.3204 22.9731 41.9204C27.1398 46.1542 31.9609 51.0539 42.494 51.0539C53.8249 51.0539 60.9075 45.3826 63.7402 34.0365C59.4903 39.7095 54.5327 41.8365 48.8672 40.4191C45.6348 39.6089 43.3234 37.2605 40.7671 34.6622C36.6005 30.4284 31.7777 25.527 21.2462 25.527Z" fill="#06B6D4"/>
<path fill-rule="evenodd" clip-rule="evenodd" d="M127.474 21.513H120.058V35.8834C120.058 39.7163 122.569 39.656 127.474 39.4161V45.225C117.545 46.4227 113.598 43.6683 113.598 35.8834V21.513H108.096V15.2847H113.598V7.24318L120.058 5.32589V15.2847H127.474V21.513ZM155.741 15.2847H162.199V45.225H155.741V40.914C153.468 44.086 149.939 46.0033 145.274 46.0033C137.141 46.0033 130.383 39.1175 130.383 30.254C130.383 21.3335 137.141 14.5064 145.274 14.5064C149.939 14.5064 153.468 16.422 155.741 19.537V15.2847V15.2847ZM146.292 39.8354C151.674 39.8354 155.741 35.8231 155.741 30.254C155.741 24.685 151.674 20.6743 146.292 20.6743C140.91 20.6743 136.843 24.6867 136.843 30.254C136.843 35.8231 140.91 39.8354 146.292 39.8354ZM172.964 10.7943C170.692 10.7943 168.839 8.87867 168.839 6.6628C168.844 5.56463 169.281 4.51331 170.054 3.73898C170.827 2.96466 171.873 2.53041 172.964 2.53131C174.054 2.52997 175.101 2.96402 175.874 3.73839C176.648 4.51277 177.085 5.56434 177.09 6.6628C177.09 8.87699 175.237 10.7943 172.964 10.7943ZM169.735 45.225V15.2847H176.194V45.225H169.735ZM183.67 45.225V1.50977H190.128V45.2233H183.67V45.225ZM232.053 15.2847H238.871L229.481 45.225H223.142L216.922 25.0456L210.642 45.225H204.303L194.913 15.2847H201.73L207.532 35.9422L213.812 15.2847H219.972L226.191 35.9422L232.053 15.2847V15.2847ZM246.884 10.7943C244.611 10.7943 242.757 8.87867 242.757 6.6628C242.763 5.56434 243.2 4.51277 243.973 3.73839C244.747 2.96402 245.793 2.52997 246.884 2.53131C247.975 2.52997 249.021 2.96402 249.795 3.73839C250.568 4.51277 251.005 5.56434 251.011 6.6628C251.011 8.87699 249.157 10.7943 246.884 10.7943ZM243.655 45.225V15.2847H250.113V45.225H243.655V45.225ZM273.318 14.5064C280.016 14.5064 284.8 19.0573 284.8 26.8422V45.2233H278.342V27.4997C278.342 22.9489 275.711 20.5552 271.644 20.5552C267.397 20.5552 264.049 23.0696 264.049 29.1771V45.225H257.589V15.2847H264.049V19.1176C266.022 16.0043 269.251 14.5064 273.318 14.5064V14.5064ZM315.42 3.30964H321.88V45.2233H315.42V40.9123C313.149 44.086 309.62 46.0016 304.956 46.0016C296.822 46.0016 290.064 39.1158 290.064 30.2523C290.064 21.3318 296.822 14.5047 304.956 14.5047C309.62 14.5047 313.149 16.4203 315.42 19.5353V3.30964V3.30964ZM305.971 39.8354C311.354 39.8354 315.42 35.8231 315.42 30.254C315.42 24.685 311.354 20.6743 305.971 20.6743C300.589 20.6743 296.522 24.6867 296.522 30.254C296.522 35.8231 300.589 39.8354 305.971 39.8354ZM343.529 46.0033C334.498 46.0033 327.74 39.1175 327.74 30.254C327.74 21.3335 334.498 14.5064 343.529 14.5064C349.39 14.5064 354.474 17.5593 356.865 22.2309L351.303 25.465C349.987 22.6503 347.058 20.8538 343.469 20.8538C338.207 20.8538 334.2 24.8662 334.2 30.254C334.2 35.6436 338.207 39.656 343.469 39.656C347.058 39.656 349.987 37.7991 351.423 35.0447L356.985 38.2184C354.474 42.9487 349.39 46.0016 343.529 46.0016V46.0033ZM367.63 23.5477C367.63 28.9976 383.719 25.7032 383.719 36.7825C383.719 42.7709 378.514 46.0033 372.056 46.0033C366.076 46.0033 361.77 43.3077 359.856 38.9967L365.418 35.7643C366.374 38.4583 368.767 40.0753 372.056 40.0753C374.927 40.0753 377.139 39.1175 377.139 36.7205C377.139 31.393 361.052 34.3872 361.052 23.6685C361.052 18.0391 365.896 14.5064 371.996 14.5064C376.901 14.5064 380.967 16.7827 383.061 20.7347L377.619 23.7876C376.541 21.4526 374.448 20.374 371.996 20.374C369.663 20.374 367.63 21.3922 367.63 23.5477V23.5477ZM395.201 23.5477C395.201 28.9976 411.288 25.7032 411.288 36.7825C411.288 42.7709 406.086 46.0033 399.626 46.0033C393.646 46.0033 389.341 43.3077 387.426 38.9967L392.988 35.7643C393.945 38.4583 396.337 40.0753 399.626 40.0753C402.497 40.0753 404.71 39.1175 404.71 36.7205C404.71 31.393 388.623 34.3872 388.623 23.6685C388.623 18.0391 393.466 14.5064 399.567 14.5064C404.47 14.5064 408.537 16.7827 410.63 20.7347L405.188 23.7876C404.112 21.4526 402.019 20.374 399.567 20.374C397.234 20.374 395.201 21.3922 395.201 23.5477V23.5477Z" fill="black"/>
</svg>
